{"title":"We Need To Talk About Kevin 2011 LIMITED BRRip XviD Ac3 Feel-Fre","uid":7008458,"size":1205221676,"categoryP":"video","categoryS":"movies","magnet":"?xt=urn:btih:418ea630eff14e2bbd7e3f25a0f4c5cc6d62c0be&amp;dn=We+Need+To+Talk+About+Kevin+2011+LIMITED+BRRip+XviD+Ac3+Feel-Fre&amp;tr=udp%3A%2F%2Ftracker.openbittorrent.com%3A80&amp;tr=udp%3A%2F%2Fopen.demonii.com%3A1337&amp;tr=udp%3A%2F%2Ftracker.coppersurfer.tk%3A6969&amp;tr=udp%3A%2F%2Fexodus.desync.com%3A6969","seeders":1,"leechers":0,"uploader":null,"files":8,"time":1328351390,"description":"Genre:Drama | Thriller\nLanguage:English\nIMDb:http://www.imdb.com/title/tt1242460\nSource:LIMITED.720p.BluRay.x264-SPARKS Thanks!\nEncoder:Tony\n\nFormat : AVI\nFormat/Info : Audio Video Interleave\nFile size : 1.12 GiB\nDuration : 1h 51mn\nOverall bit rate : 1 434 Kbps\n\nVideo\nID : 0\nFormat : MPEG-4 Visual\nFormat profile : Advanced Simple@L5\nFormat settings, BVOP : 1\nFormat settings, QPel : No\nFormat settings, GMC : No warppoints\nFormat settings, Matrix : Default (H.263)\nCodec ID : XVID\nCodec ID/Hint : XviD\nDuration : 1h 51mn\nBit rate : 977 Kbps\nWidth : 640 pixels\nHeight : 264 pixels\nDisplay aspect ratio : 2.40:1\nFrame rate : 24.000 fps\nColor space : YUV\nChroma subsampling : 4:2:0\nBit depth : 8 bits\nScan type : Progressive\nCompression mode : Lossy\nBits/(Pixel*Frame) : 0.241\nStream size : 782 MiB (68%)\nWriting library : XviD 1.2.1 (UTC 2008-12-04)\n\nAudio\nID : 1\nFormat : AC-3\nFormat/Info : Audio Coding 3\nMode extension : CM (complete main)\nCodec ID : 2000\nDuration : 1h 51mn\nBit rate mode : Constant\nBit rate : 448 Kbps\nChannel(s) : 6 channels\nChannel positions : Front: L C R, Side: L R, LFE\nSampling rate : 48.0 KHz\nBit depth : 16 bits\nCompression mode : Lossy\nStream size : 359 MiB (31%)\nAlignment : Aligned on interleaves\nInterleave, duration : 42 ms (1.00 video frame)\nInterleave, preload duration : 512 ms\n\n\nPlot:\nThe mother of a teenage boy who went on a high-school killing spree tries to deal with her grief - and feelings of responsibility for her child's actions\n","torrent":{"xt":"urn:btih:418ea630eff14e2bbd7e3f25a0f4c5cc6d62c0be","amp;dn":"We+Need+To+Talk+About+Kevin+2011+LIMITED+BRRip+XviD+Ac3+Feel-Fre","amp;tr":["udp%3A%2F%2Ftracker.openbittorrent.com%3A80","udp%3A%2F%2Fopen.demonii.com%3A1337","udp%3A%2F%2Ftracker.coppersurfer.tk%3A6969","udp%3A%2F%2Fexodus.desync.com%3A6969"],"infoHash":"418ea630eff14e2bbd7e3f25a0f4c5cc6d62c0be","infoHashBuffer":{"type":"Buffer","data":[65,142,166,48,239,241,78,43,189,126,63,37,160,244,197,204,109,98,192,190]},"announce":[],"urlList":[]}}